<mxfile host="Electron" modified="2025-03-30T02:48:13.910Z" agent="Mozilla/5.0 (Windows NT 10.0; Win64; x64) AppleWebKit/537.36 (KHTML, like Gecko) draw.io/24.6.1 Chrome/124.0.6367.207 Electron/30.0.6 Safari/537.36" etag="zY6maVrFoFL3xB6_81wW" version="24.6.1" type="device">
  <diagram name="第 1 页" id="vqWau-e-E-2NGZMYkPaF">
    <mxGraphModel dx="3660" dy="2043" grid="1" gridSize="10" guides="1" tooltips="1" connect="1" arrows="1" fold="1" page="1" pageScale="1" pageWidth="3300" pageHeight="2339" math="0" shadow="0">
      <root>
        <mxCell id="0" />
        <mxCell id="1" parent="0" />
        <mxCell id="xeSqL9ig4Ll313XF6Yye-1" value="&lt;b style=&quot;font-size: 35px;&quot;&gt;AI对话&lt;/b&gt;" style="rounded=1;whiteSpace=wrap;html=1;strokeWidth=2;" vertex="1" parent="1">
          <mxGeometry x="730" y="320" width="390" height="80" as="geometry" />
        </mxCell>
        <mxCell id="xeSqL9ig4Ll313XF6Yye-6" value="&lt;font style=&quot;font-size: 30px;&quot;&gt;YES&lt;/font&gt;" style="text;html=1;align=center;verticalAlign=middle;whiteSpace=wrap;rounded=0;" vertex="1" parent="1">
          <mxGeometry x="920" y="680" width="90" height="40" as="geometry" />
        </mxCell>
        <mxCell id="xeSqL9ig4Ll313XF6Yye-20" value="&lt;font style=&quot;font-size: 30px;&quot;&gt;&lt;b&gt;点击对话按钮&lt;/b&gt;&lt;/font&gt;" style="rhombus;whiteSpace=wrap;html=1;strokeWidth=2;" vertex="1" parent="1">
          <mxGeometry x="800" y="480" width="240" height="200" as="geometry" />
        </mxCell>
        <mxCell id="xeSqL9ig4Ll313XF6Yye-21" value="" style="endArrow=classic;html=1;rounded=0;strokeWidth=4;entryX=0.5;entryY=0;entryDx=0;entryDy=0;" edge="1" parent="1" target="xeSqL9ig4Ll313XF6Yye-20">
          <mxGeometry width="50" height="50" relative="1" as="geometry">
            <mxPoint x="919.6299999999999" y="400" as="sourcePoint" />
            <mxPoint x="920.3" y="460" as="targetPoint" />
          </mxGeometry>
        </mxCell>
        <mxCell id="xeSqL9ig4Ll313XF6Yye-22" value="" style="endArrow=classic;html=1;rounded=0;strokeWidth=4;" edge="1" parent="1">
          <mxGeometry width="50" height="50" relative="1" as="geometry">
            <mxPoint x="919.6299999999999" y="680" as="sourcePoint" />
            <mxPoint x="920" y="720" as="targetPoint" />
          </mxGeometry>
        </mxCell>
        <mxCell id="xeSqL9ig4Ll313XF6Yye-23" value="&lt;b style=&quot;font-size: 35px;&quot;&gt;录制音频&lt;/b&gt;" style="rounded=1;whiteSpace=wrap;html=1;strokeWidth=2;" vertex="1" parent="1">
          <mxGeometry x="730" y="720" width="390" height="80" as="geometry" />
        </mxCell>
        <mxCell id="xeSqL9ig4Ll313XF6Yye-24" value="" style="endArrow=classic;html=1;rounded=0;strokeWidth=4;" edge="1" parent="1">
          <mxGeometry width="50" height="50" relative="1" as="geometry">
            <mxPoint x="919.6999999999999" y="800" as="sourcePoint" />
            <mxPoint x="920.07" y="840" as="targetPoint" />
          </mxGeometry>
        </mxCell>
        <mxCell id="xeSqL9ig4Ll313XF6Yye-25" value="&lt;b style=&quot;font-size: 35px;&quot;&gt;向百度语音识别发送HTTP请求&lt;/b&gt;" style="rounded=1;whiteSpace=wrap;html=1;strokeWidth=2;" vertex="1" parent="1">
          <mxGeometry x="725" y="840" width="390" height="80" as="geometry" />
        </mxCell>
        <mxCell id="xeSqL9ig4Ll313XF6Yye-26" value="" style="endArrow=classic;html=1;rounded=0;strokeWidth=4;" edge="1" parent="1">
          <mxGeometry width="50" height="50" relative="1" as="geometry">
            <mxPoint x="919.64" y="920" as="sourcePoint" />
            <mxPoint x="920.0100000000001" y="960" as="targetPoint" />
          </mxGeometry>
        </mxCell>
        <mxCell id="xeSqL9ig4Ll313XF6Yye-30" value="" style="edgeStyle=orthogonalEdgeStyle;rounded=0;orthogonalLoop=1;jettySize=auto;html=1;" edge="1" parent="1" source="xeSqL9ig4Ll313XF6Yye-27" target="xeSqL9ig4Ll313XF6Yye-29">
          <mxGeometry relative="1" as="geometry" />
        </mxCell>
        <mxCell id="xeSqL9ig4Ll313XF6Yye-27" value="&lt;b style=&quot;font-size: 35px;&quot;&gt;得到识别结果&lt;/b&gt;" style="rounded=1;whiteSpace=wrap;html=1;strokeWidth=2;" vertex="1" parent="1">
          <mxGeometry x="725" y="960" width="390" height="80" as="geometry" />
        </mxCell>
        <mxCell id="xeSqL9ig4Ll313XF6Yye-28" value="" style="endArrow=classic;html=1;rounded=0;strokeWidth=4;" edge="1" parent="1">
          <mxGeometry width="50" height="50" relative="1" as="geometry">
            <mxPoint x="919.64" y="1040" as="sourcePoint" />
            <mxPoint x="920.0100000000001" y="1080" as="targetPoint" />
          </mxGeometry>
        </mxCell>
        <mxCell id="xeSqL9ig4Ll313XF6Yye-29" value="&lt;span style=&quot;font-size: 35px;&quot;&gt;&lt;b&gt;通过HTTP将识别结果发送给百度Chat&lt;/b&gt;&lt;/span&gt;" style="rounded=1;whiteSpace=wrap;html=1;strokeWidth=2;" vertex="1" parent="1">
          <mxGeometry x="725" y="1080" width="390" height="80" as="geometry" />
        </mxCell>
        <mxCell id="xeSqL9ig4Ll313XF6Yye-31" value="" style="endArrow=classic;html=1;rounded=0;strokeWidth=4;" edge="1" parent="1">
          <mxGeometry width="50" height="50" relative="1" as="geometry">
            <mxPoint x="919.64" y="1160" as="sourcePoint" />
            <mxPoint x="920.0100000000001" y="1200" as="targetPoint" />
          </mxGeometry>
        </mxCell>
        <mxCell id="xeSqL9ig4Ll313XF6Yye-32" value="&lt;b style=&quot;font-size: 35px;&quot;&gt;得到回答&lt;/b&gt;" style="rounded=1;whiteSpace=wrap;html=1;strokeWidth=2;" vertex="1" parent="1">
          <mxGeometry x="725" y="1200" width="390" height="80" as="geometry" />
        </mxCell>
        <mxCell id="xeSqL9ig4Ll313XF6Yye-33" value="" style="endArrow=classic;html=1;rounded=0;strokeWidth=4;" edge="1" parent="1">
          <mxGeometry width="50" height="50" relative="1" as="geometry">
            <mxPoint x="919.64" y="1280" as="sourcePoint" />
            <mxPoint x="920.0100000000001" y="1320" as="targetPoint" />
          </mxGeometry>
        </mxCell>
        <mxCell id="xeSqL9ig4Ll313XF6Yye-34" value="&lt;span style=&quot;font-size: 35px;&quot;&gt;&lt;b&gt;通过HTTP将回答发送给语音合成&lt;/b&gt;&lt;/span&gt;" style="rounded=1;whiteSpace=wrap;html=1;strokeWidth=2;" vertex="1" parent="1">
          <mxGeometry x="725" y="1320" width="390" height="80" as="geometry" />
        </mxCell>
        <mxCell id="xeSqL9ig4Ll313XF6Yye-35" value="" style="endArrow=classic;html=1;rounded=0;strokeWidth=4;" edge="1" parent="1">
          <mxGeometry width="50" height="50" relative="1" as="geometry">
            <mxPoint x="919.6999999999999" y="1400" as="sourcePoint" />
            <mxPoint x="920.07" y="1440" as="targetPoint" />
          </mxGeometry>
        </mxCell>
        <mxCell id="xeSqL9ig4Ll313XF6Yye-36" value="&lt;b style=&quot;font-size: 35px;&quot;&gt;得到合成音频进行播放&lt;/b&gt;" style="rounded=1;whiteSpace=wrap;html=1;strokeWidth=2;" vertex="1" parent="1">
          <mxGeometry x="730" y="1440" width="390" height="80" as="geometry" />
        </mxCell>
        <mxCell id="xeSqL9ig4Ll313XF6Yye-37" value="" style="endArrow=classic;html=1;rounded=0;strokeWidth=4;entryX=0;entryY=0.5;entryDx=0;entryDy=0;" edge="1" parent="1" target="xeSqL9ig4Ll313XF6Yye-1">
          <mxGeometry width="50" height="50" relative="1" as="geometry">
            <mxPoint x="919.7" y="1520" as="sourcePoint" />
            <mxPoint x="680" y="350" as="targetPoint" />
            <Array as="points">
              <mxPoint x="920" y="1560" />
              <mxPoint x="680" y="1560" />
              <mxPoint x="680" y="360" />
            </Array>
          </mxGeometry>
        </mxCell>
        <mxCell id="xeSqL9ig4Ll313XF6Yye-38" value="" style="endArrow=classic;html=1;rounded=0;strokeWidth=4;entryX=1;entryY=0.5;entryDx=0;entryDy=0;" edge="1" parent="1" target="xeSqL9ig4Ll313XF6Yye-1">
          <mxGeometry width="50" height="50" relative="1" as="geometry">
            <mxPoint x="1040" y="580" as="sourcePoint" />
            <mxPoint x="1200" y="360" as="targetPoint" />
            <Array as="points">
              <mxPoint x="1200" y="580" />
              <mxPoint x="1200" y="360" />
            </Array>
          </mxGeometry>
        </mxCell>
        <mxCell id="xeSqL9ig4Ll313XF6Yye-39" value="&lt;font style=&quot;font-size: 30px;&quot;&gt;NO&lt;/font&gt;" style="text;html=1;align=center;verticalAlign=middle;whiteSpace=wrap;rounded=0;" vertex="1" parent="1">
          <mxGeometry x="1040" y="540" width="90" height="40" as="geometry" />
        </mxCell>
        <mxCell id="xeSqL9ig4Ll313XF6Yye-40" value="&lt;b style=&quot;font-size: 35px;&quot;&gt;AI建议&lt;/b&gt;" style="rounded=1;whiteSpace=wrap;html=1;strokeWidth=2;" vertex="1" parent="1">
          <mxGeometry x="1220" y="720" width="390" height="80" as="geometry" />
        </mxCell>
        <mxCell id="xeSqL9ig4Ll313XF6Yye-41" value="" style="endArrow=classic;html=1;rounded=0;strokeWidth=4;entryX=0.5;entryY=0;entryDx=0;entryDy=0;" edge="1" parent="1" target="xeSqL9ig4Ll313XF6Yye-42">
          <mxGeometry width="50" height="50" relative="1" as="geometry">
            <mxPoint x="1410" y="800" as="sourcePoint" />
            <mxPoint x="1410.3700000000001" y="840" as="targetPoint" />
          </mxGeometry>
        </mxCell>
        <mxCell id="xeSqL9ig4Ll313XF6Yye-42" value="&lt;font style=&quot;font-size: 30px;&quot;&gt;&lt;b&gt;点击建议按钮&lt;/b&gt;&lt;/font&gt;" style="rhombus;whiteSpace=wrap;html=1;strokeWidth=2;" vertex="1" parent="1">
          <mxGeometry x="1290" y="840" width="240" height="200" as="geometry" />
        </mxCell>
        <mxCell id="xeSqL9ig4Ll313XF6Yye-44" value="&lt;b&gt;&lt;font style=&quot;font-size: 30px;&quot;&gt;身体健康数据&lt;/font&gt;&lt;/b&gt;" style="rounded=1;whiteSpace=wrap;html=1;strokeWidth=2;" vertex="1" parent="1">
          <mxGeometry x="1220" y="1080" width="390" height="80" as="geometry" />
        </mxCell>
        <mxCell id="xeSqL9ig4Ll313XF6Yye-45" value="" style="endArrow=classic;html=1;rounded=0;strokeWidth=4;entryX=0.5;entryY=0;entryDx=0;entryDy=0;" edge="1" parent="1">
          <mxGeometry width="50" height="50" relative="1" as="geometry">
            <mxPoint x="1409.57" y="1040" as="sourcePoint" />
            <mxPoint x="1409.57" y="1080" as="targetPoint" />
          </mxGeometry>
        </mxCell>
        <mxCell id="xeSqL9ig4Ll313XF6Yye-46" value="" style="endArrow=classic;html=1;rounded=0;strokeWidth=4;entryX=1;entryY=0.5;entryDx=0;entryDy=0;" edge="1" parent="1" target="xeSqL9ig4Ll313XF6Yye-29">
          <mxGeometry width="50" height="50" relative="1" as="geometry">
            <mxPoint x="1219.1299999999999" y="1120" as="sourcePoint" />
            <mxPoint x="1219.1299999999999" y="1160" as="targetPoint" />
          </mxGeometry>
        </mxCell>
        <mxCell id="xeSqL9ig4Ll313XF6Yye-47" value="&lt;font style=&quot;font-size: 30px;&quot;&gt;YES&lt;/font&gt;" style="text;html=1;align=center;verticalAlign=middle;whiteSpace=wrap;rounded=0;" vertex="1" parent="1">
          <mxGeometry x="1420" y="1030" width="90" height="40" as="geometry" />
        </mxCell>
        <mxCell id="xeSqL9ig4Ll313XF6Yye-51" value="" style="endArrow=classic;html=1;rounded=0;strokeWidth=4;entryX=1;entryY=0.5;entryDx=0;entryDy=0;" edge="1" parent="1" target="xeSqL9ig4Ll313XF6Yye-40">
          <mxGeometry width="50" height="50" relative="1" as="geometry">
            <mxPoint x="1530" y="940" as="sourcePoint" />
            <mxPoint x="1680" y="760" as="targetPoint" />
            <Array as="points">
              <mxPoint x="1680" y="940" />
              <mxPoint x="1680" y="760" />
            </Array>
          </mxGeometry>
        </mxCell>
        <mxCell id="xeSqL9ig4Ll313XF6Yye-52" value="&lt;font style=&quot;font-size: 30px;&quot;&gt;NO&lt;/font&gt;" style="text;html=1;align=center;verticalAlign=middle;whiteSpace=wrap;rounded=0;" vertex="1" parent="1">
          <mxGeometry x="1530" y="900" width="90" height="40" as="geometry" />
        </mxCell>
      </root>
    </mxGraphModel>
  </diagram>
</mxfile>
